<svg xmlns="http://www.w3.org/2000/svg" viewBox="0 0 240 420" role="img" aria-label="OdiePt prestige anatomy figure">
  <defs>
    <radialGradient id="aura" cx="50%" cy="44%" r="58%">
      <stop offset="0" stop-color="#54d9e9" stop-opacity=".32"/>
      <stop offset=".58" stop-color="#1b6b73" stop-opacity=".14"/>
      <stop offset="1" stop-color="#010409" stop-opacity="0"/>
    </radialGradient>
    <linearGradient id="skin" x1="120" y1="38" x2="120" y2="400" gradientUnits="userSpaceOnUse">
      <stop offset="0" stop-color="#e8fff8" stop-opacity=".94"/>
      <stop offset=".42" stop-color="#426462" stop-opacity=".98"/>
      <stop offset="1" stop-color="#142225" stop-opacity=".98"/>
    </linearGradient>
    <linearGradient id="muscleHot" x1="62" y1="92" x2="176" y2="352" gradientUnits="userSpaceOnUse">
      <stop offset="0" stop-color="#f1bf66"/>
      <stop offset=".46" stop-color="#65c995"/>
      <stop offset="1" stop-color="#48d2e6"/>
    </linearGradient>
    <filter id="glow" x="-35%" y="-20%" width="170%" height="145%">
      <feGaussianBlur stdDeviation="3.5" result="blur"/>
      <feColorMatrix in="blur" type="matrix" values="0 0 0 0 0.28 0 0 0 0 0.82 0 0 0 0 0.9 0 0 0 .75 0"/>
      <feMerge>
        <feMergeNode/>
        <feMergeNode in="SourceGraphic"/>
      </feMerge>
    </filter>
  </defs>

  <rect width="240" height="420" fill="none"/>
  <ellipse cx="120" cy="221" rx="96" ry="178" fill="url(#aura)"/>
  <path d="M52 398c18-13 42-19 68-19s50 6 68 19" fill="none" stroke="#48d2e6" stroke-opacity=".18" stroke-width="2"/>
  <path d="M30 403c27-21 57-31 90-31s63 10 90 31" fill="none" stroke="#fff3df" stroke-opacity=".08" stroke-width="1"/>

  <g filter="url(#glow)" stroke-linecap="round" stroke-linejoin="round">
    <path d="M79 98c-16 8-30 25-38 53l-14 67c-3 15 7 29 22 31 11 1 21-6 24-17l16-59 12-43Z" fill="#17282b" stroke="#78dcc7" stroke-opacity=".52" stroke-width="1.4"/>
    <path d="M161 98c16 8 30 25 38 53l14 67c3 15-7 29-22 31-11 1-21-6-24-17l-16-59-12-43Z" fill="#17282b" stroke="#78dcc7" stroke-opacity=".52" stroke-width="1.4"/>

    <path d="M95 78c13-8 37-8 50 0 16 24 21 61 15 100-5 31-16 52-17 84l-23 18-23-18c-1-32-12-53-17-84-6-39-1-76 15-100Z" fill="url(#skin)" stroke="#d8e2de" stroke-opacity=".38" stroke-width="1.6"/>
    <ellipse cx="120" cy="50" rx="25" ry="31" fill="#142225" stroke="#d8e2de" stroke-opacity=".42" stroke-width="1.4"/>
    <path d="M101 75c6 11 13 16 19 16s13-5 19-16" fill="none" stroke="#48d2e6" stroke-opacity=".58" stroke-width="2"/>

    <path d="M86 116c12-15 26-19 34-15v43c-17 0-30-6-39-19Z" fill="#263f3e" stroke="#48d2e6" stroke-opacity=".34"/>
    <path d="M154 116c-12-15-26-19-34-15v43c17 0 30-6 39-19Z" fill="#263f3e" stroke="#48d2e6" stroke-opacity=".34"/>
    <path d="M94 151c14 8 38 8 52 0-3 25-10 48-26 62-16-14-23-37-26-62Z" fill="#13282b" stroke="#78dcc7" stroke-opacity=".3"/>

    <path d="M108 154h24M104 171h32M101 189h38M104 208h32" stroke="#fff3df" stroke-opacity=".16" stroke-width="1.2"/>
    <path d="M120 91v174" stroke="#48d2e6" stroke-opacity=".42" stroke-width="1.2"/>

    <path d="M83 126c-9 18-15 42-19 72" stroke="url(#muscleHot)" stroke-opacity=".72" stroke-width="10"/>
    <path d="M157 126c9 18 15 42 19 72" stroke="url(#muscleHot)" stroke-opacity=".72" stroke-width="10"/>
    <path d="M50 218c-4 22-2 38 8 48 9 9 22 7 28-4" fill="none" stroke="#78dcc7" stroke-opacity=".44" stroke-width="9"/>
    <path d="M190 218c4 22 2 38-8 48-9 9-22 7-28-4" fill="none" stroke="#78dcc7" stroke-opacity=".44" stroke-width="9"/>

    <path d="M97 262c-7 23-8 53-5 88 1 19-6 34-12 49h27c7-29 13-58 18-87l-5-43Z" fill="#18272b" stroke="#78dcc7" stroke-opacity=".42"/>
    <path d="M143 262c7 23 8 53 5 88-1 19 6 34 12 49h-27c-7-29-13-58-18-87l5-43Z" fill="#18272b" stroke="#78dcc7" stroke-opacity=".42"/>
    <path d="M89 270c-17 28-24 63-24 102 0 15-5 24-13 27h33c11-30 19-62 26-96Z" fill="#142225" stroke="#48d2e6" stroke-opacity=".34"/>
    <path d="M151 270c17 28 24 63 24 102 0 15 5 24 13 27h-33c-11-30-19-62-26-96Z" fill="#142225" stroke="#48d2e6" stroke-opacity=".34"/>

    <path d="M92 292c15 9 26 9 33 0" stroke="#f1bf66" stroke-opacity=".45" stroke-width="8"/>
    <path d="M148 292c-15 9-26 9-33 0" stroke="#f1bf66" stroke-opacity=".45" stroke-width="8"/>
    <path d="M79 352c10 10 23 10 33 0" stroke="#65c995" stroke-opacity=".45" stroke-width="7"/>
    <path d="M161 352c-10 10-23 10-33 0" stroke="#65c995" stroke-opacity=".45" stroke-width="7"/>

    <path d="M72 93c28-18 68-18 96 0" fill="none" stroke="#48d2e6" stroke-opacity=".72" stroke-width="2"/>
    <path d="M58 401h41M141 401h41" stroke="#d8e2de" stroke-opacity=".32" stroke-width="2"/>
  </g>
</svg>
